<svg width="40" height="40" viewBox="0 0 40 40" fill="none" xmlns="http://www.w3.org/2000/svg">
<path fill-rule="evenodd" clip-rule="evenodd" d="M29.7875 20.2251C29.7875 19.5161 29.7239 18.8342 29.6057 18.1797H20.1875V22.0479H25.5693C25.3375 23.2979 24.633 24.357 23.5739 25.0661V27.5752H26.8057C28.6966 25.8343 29.7875 23.2706 29.7875 20.2251Z" fill="#4285F4"/>
<path fill-rule="evenodd" clip-rule="evenodd" d="M20.1864 29.9985C22.8864 29.9985 25.15 29.103 26.8046 27.5757L23.5728 25.0666C22.6773 25.6666 21.5318 26.0212 20.1864 26.0212C17.5818 26.0212 15.3773 24.2621 14.5909 21.8984H11.25V24.4894C12.8955 27.7575 16.2773 29.9985 20.1864 29.9985Z" fill="#34A853"/>
<path fill-rule="evenodd" clip-rule="evenodd" d="M14.5921 21.8987C14.3921 21.2987 14.2784 20.6578 14.2784 19.9987C14.2784 19.3396 14.3921 18.6987 14.5921 18.0987V15.5078H11.2511C10.5739 16.8578 10.1875 18.3851 10.1875 19.9987C10.1875 21.6124 10.5739 23.1396 11.2511 24.4897L14.5921 21.8987Z" fill="#FBBC05"/>
<path fill-rule="evenodd" clip-rule="evenodd" d="M20.1864 13.9773C21.6546 13.9773 22.9727 14.4818 24.0091 15.4727L26.8773 12.6046C25.1455 10.9909 22.8818 10 20.1864 10C16.2773 10 12.8955 12.2409 11.25 15.5091L14.5909 18.1C15.3773 15.7364 17.5818 13.9773 20.1864 13.9773Z" fill="#EA4335"/>
</svg>
