<svg width="20" height="20" viewBox="0 0 20 20" fill="none" xmlns="http://www.w3.org/2000/svg">
<path d="M6.07847 19.975C5.57847 19.975 5.15347 19.8 4.80347 19.45C4.45347 19.1 4.27847 18.675 4.27847 18.175C4.27847 17.675 4.45347 17.25 4.80347 16.9C5.15347 16.55 5.57847 16.375 6.07847 16.375C6.57847 16.375 7.00347 16.55 7.35347 16.9C7.70347 17.25 7.87847 17.675 7.87847 18.175C7.87847 18.675 7.70347 19.1 7.35347 19.45C7.00347 19.8 6.57847 19.975 6.07847 19.975ZM16.0785 19.975C15.5785 19.975 15.1535 19.8 14.8035 19.45C14.4535 19.1 14.2785 18.675 14.2785 18.175C14.2785 17.675 14.4535 17.25 14.8035 16.9C15.1535 16.55 15.5785 16.375 16.0785 16.375C16.5785 16.375 17.0035 16.55 17.3535 16.9C17.7035 17.25 17.8785 17.675 17.8785 18.175C17.8785 18.675 17.7035 19.1 17.3535 19.45C17.0035 19.8 16.5785 19.975 16.0785 19.975ZM4.77847 3.475L7.52847 9.175H14.7285L17.8535 3.475H4.77847ZM4.02847 1.975H18.7535C19.1368 1.975 19.4285 2.15 19.6285 2.5C19.8285 2.85 19.8285 3.2 19.6285 3.55L16.2535 9.625C16.0701 9.94167 15.8326 10.1958 15.541 10.3875C15.2493 10.5792 14.9285 10.675 14.5785 10.675H7.00347L5.60347 13.275H17.8785V14.775H5.82847C5.12847 14.775 4.6243 14.5417 4.31597 14.075C4.00763 13.6083 4.0118 13.0833 4.32847 12.5L5.92847 9.55L2.12847 1.5H0.178467V0H3.10347L4.02847 1.975ZM7.52847 9.175H14.7285H7.52847Z" fill="#555555"/>
</svg>
