<svg width="14" height="22" viewBox="0 0 14 22" fill="none" xmlns="http://www.w3.org/2000/svg">
<path d="M7 0.714355C5.97702 0.714355 4.99594 1.12073 4.27259 1.84409C3.54923 2.56744 3.14286 3.54852 3.14286 4.5715V11.4286C3.14286 11.9352 3.24262 12.4367 3.43646 12.9047C3.6303 13.3727 3.91442 13.7979 4.27259 14.1561C4.63076 14.5142 5.05596 14.7983 5.52393 14.9922C5.9919 15.186 6.49347 15.2858 7 15.2858C7.50653 15.2858 8.00809 15.186 8.47606 14.9922C8.94403 14.7983 9.36924 14.5142 9.72741 14.1561C10.0856 13.7979 10.3697 13.3727 10.5635 12.9047C10.7574 12.4367 10.8571 11.9352 10.8571 11.4286V4.5715C10.8571 3.54852 10.4508 2.56744 9.72741 1.84409C9.00406 1.12073 8.02298 0.714355 7 0.714355V0.714355ZM4.42857 4.5715C4.42857 4.23381 4.49508 3.89944 4.62431 3.58746C4.75354 3.27548 4.94295 2.992 5.18172 2.75322C5.4205 2.51444 5.70398 2.32503 6.01596 2.19581C6.32794 2.06658 6.66231 2.00007 7 2.00007C7.33768 2.00007 7.67206 2.06658 7.98404 2.19581C8.29602 2.32503 8.5795 2.51444 8.81827 2.75322C9.05705 2.992 9.24646 3.27548 9.37569 3.58746C9.50492 3.89944 9.57143 4.23381 9.57143 4.5715V11.4286C9.57143 11.7663 9.50492 12.1007 9.37569 12.4127C9.24646 12.7247 9.05705 13.0081 8.81827 13.2469C8.5795 13.4857 8.29602 13.6751 7.98404 13.8043C7.67206 13.9336 7.33768 14.0001 7 14.0001C6.66231 14.0001 6.32794 13.9336 6.01596 13.8043C5.70398 13.6751 5.4205 13.4857 5.18172 13.2469C4.94295 13.0081 4.75354 12.7247 4.62431 12.4127C4.49508 12.1007 4.42857 11.7663 4.42857 11.4286V4.5715ZM1.42857 10.7858C1.42857 10.6153 1.36084 10.4518 1.24028 10.3312C1.11972 10.2107 0.95621 10.1429 0.785714 10.1429C0.615217 10.1429 0.451704 10.2107 0.331145 10.3312C0.210586 10.4518 0.142857 10.6153 0.142857 10.7858V11.4286C0.142807 13.136 0.779716 14.782 1.92901 16.0446C3.0783 17.3073 4.65729 18.0957 6.35714 18.2558V20.6429C6.35714 20.8134 6.42487 20.9769 6.54543 21.0975C6.66599 21.2181 6.8295 21.2858 7 21.2858C7.1705 21.2858 7.33401 21.2181 7.45457 21.0975C7.57513 20.9769 7.64286 20.8134 7.64286 20.6429V18.2558C9.34271 18.0957 10.9217 17.3073 12.071 16.0446C13.2203 14.782 13.8572 13.136 13.8571 11.4286V10.7858C13.8571 10.6153 13.7894 10.4518 13.6689 10.3312C13.5483 10.2107 13.3848 10.1429 13.2143 10.1429C13.0438 10.1429 12.8803 10.2107 12.7597 10.3312C12.6392 10.4518 12.5714 10.6153 12.5714 10.7858V11.4286C12.5714 12.9063 11.9844 14.3234 10.9396 15.3682C9.89475 16.4131 8.47763 17.0001 7 17.0001C5.52236 17.0001 4.10525 16.4131 3.0604 15.3682C2.01556 14.3234 1.42857 12.9063 1.42857 11.4286V10.7858Z" fill="#555555"/>
</svg>
